<mxfile host="app.diagrams.net" modified="2024-08-01T19:35:07.881Z" agent="Mozilla/5.0 (X11; Linux x86_64; rv:128.0) Gecko/20100101 Firefox/128.0" etag="DUcA9N1IP4dDcsAAfBoe" version="24.2.5" type="device">
  <diagram name="Seite-1" id="D7MkCN9LIQanSwT5Anyt">
    <mxGraphModel dx="2268" dy="717" grid="1" gridSize="10" guides="1" tooltips="1" connect="1" arrows="1" fold="1" page="1" pageScale="1" pageWidth="850" pageHeight="1100" math="0" shadow="0">
      <root>
        <mxCell id="0" />
        <mxCell id="1" parent="0" />
        <mxCell id="SdwMhYSrG6HtyvcJUSBf-4" style="edgeStyle=orthogonalEdgeStyle;rounded=0;orthogonalLoop=1;jettySize=auto;html=1;exitX=1;exitY=0.25;exitDx=0;exitDy=0;entryX=0;entryY=0.25;entryDx=0;entryDy=0;verticalAlign=bottom;horizontal=1;spacing=5;" parent="1" source="SdwMhYSrG6HtyvcJUSBf-1" target="SdwMhYSrG6HtyvcJUSBf-3" edge="1">
          <mxGeometry relative="1" as="geometry">
            <mxPoint x="240" y="200" as="sourcePoint" />
            <mxPoint x="360" y="200" as="targetPoint" />
          </mxGeometry>
        </mxCell>
        <mxCell id="SdwMhYSrG6HtyvcJUSBf-6" value="&lt;div align=&quot;center&quot;&gt;&lt;font face=&quot;Courier New&quot;&gt;this.ways&lt;/font&gt;&lt;/div&gt;" style="edgeLabel;html=1;align=center;verticalAlign=bottom;resizable=0;points=[];horizontal=1;spacing=5;" parent="SdwMhYSrG6HtyvcJUSBf-4" vertex="1" connectable="0">
          <mxGeometry x="0.1833" y="-2" relative="1" as="geometry">
            <mxPoint x="-11" as="offset" />
          </mxGeometry>
        </mxCell>
        <mxCell id="SdwMhYSrG6HtyvcJUSBf-13" style="edgeStyle=orthogonalEdgeStyle;rounded=0;orthogonalLoop=1;jettySize=auto;html=1;exitX=0.5;exitY=0;exitDx=0;exitDy=0;entryX=0.5;entryY=0;entryDx=0;entryDy=0;" parent="1" source="SdwMhYSrG6HtyvcJUSBf-1" target="SdwMhYSrG6HtyvcJUSBf-2" edge="1">
          <mxGeometry relative="1" as="geometry" />
        </mxCell>
        <mxCell id="SdwMhYSrG6HtyvcJUSBf-14" value="&lt;font face=&quot;Courier New&quot;&gt;this.nodes&lt;/font&gt;" style="edgeLabel;html=1;align=center;verticalAlign=middle;resizable=0;points=[];" parent="SdwMhYSrG6HtyvcJUSBf-13" vertex="1" connectable="0">
          <mxGeometry x="-0.0012" relative="1" as="geometry">
            <mxPoint as="offset" />
          </mxGeometry>
        </mxCell>
        <mxCell id="SdwMhYSrG6HtyvcJUSBf-1" value="Relation" style="rounded=0;whiteSpace=wrap;html=1;" parent="1" vertex="1">
          <mxGeometry x="140" y="230" width="120" height="60" as="geometry" />
        </mxCell>
        <mxCell id="SdwMhYSrG6HtyvcJUSBf-9" style="edgeStyle=orthogonalEdgeStyle;rounded=0;orthogonalLoop=1;jettySize=auto;html=1;exitX=0;exitY=0.75;exitDx=0;exitDy=0;entryX=1;entryY=0.75;entryDx=0;entryDy=0;" parent="1" source="SdwMhYSrG6HtyvcJUSBf-2" target="SdwMhYSrG6HtyvcJUSBf-3" edge="1">
          <mxGeometry relative="1" as="geometry" />
        </mxCell>
        <mxCell id="SdwMhYSrG6HtyvcJUSBf-10" value="&lt;font face=&quot;Courier New&quot;&gt;this.ways&lt;/font&gt;" style="edgeLabel;html=1;align=center;verticalAlign=top;resizable=0;points=[];spacing=0;" parent="SdwMhYSrG6HtyvcJUSBf-9" vertex="1" connectable="0">
          <mxGeometry x="0.0143" y="1" relative="1" as="geometry">
            <mxPoint as="offset" />
          </mxGeometry>
        </mxCell>
        <mxCell id="SdwMhYSrG6HtyvcJUSBf-15" style="edgeStyle=orthogonalEdgeStyle;rounded=0;orthogonalLoop=1;jettySize=auto;html=1;exitX=0.5;exitY=1;exitDx=0;exitDy=0;" parent="1" source="SdwMhYSrG6HtyvcJUSBf-2" edge="1">
          <mxGeometry relative="1" as="geometry">
            <mxPoint x="200" y="290" as="targetPoint" />
            <Array as="points">
              <mxPoint x="680" y="310" />
              <mxPoint x="200" y="310" />
            </Array>
          </mxGeometry>
        </mxCell>
        <mxCell id="SdwMhYSrG6HtyvcJUSBf-16" value="&lt;font face=&quot;Courier New&quot;&gt;this.relations&lt;/font&gt;" style="edgeLabel;html=1;align=center;verticalAlign=middle;resizable=0;points=[];" parent="SdwMhYSrG6HtyvcJUSBf-15" vertex="1" connectable="0">
          <mxGeometry x="0.0031" relative="1" as="geometry">
            <mxPoint as="offset" />
          </mxGeometry>
        </mxCell>
        <mxCell id="SdwMhYSrG6HtyvcJUSBf-2" value="Node" style="rounded=0;whiteSpace=wrap;html=1;" parent="1" vertex="1">
          <mxGeometry x="620" y="230" width="120" height="60" as="geometry" />
        </mxCell>
        <mxCell id="SdwMhYSrG6HtyvcJUSBf-5" style="edgeStyle=orthogonalEdgeStyle;rounded=0;orthogonalLoop=1;jettySize=auto;html=1;exitX=1;exitY=0.25;exitDx=0;exitDy=0;entryX=0;entryY=0.25;entryDx=0;entryDy=0;" parent="1" source="SdwMhYSrG6HtyvcJUSBf-3" target="SdwMhYSrG6HtyvcJUSBf-2" edge="1">
          <mxGeometry relative="1" as="geometry" />
        </mxCell>
        <mxCell id="SdwMhYSrG6HtyvcJUSBf-7" value="&lt;div align=&quot;center&quot;&gt;&lt;font face=&quot;Courier New&quot;&gt;this.nodes&lt;/font&gt;&lt;/div&gt;" style="edgeLabel;html=1;align=center;verticalAlign=bottom;resizable=0;points=[];spacing=5;" parent="SdwMhYSrG6HtyvcJUSBf-5" vertex="1" connectable="0">
          <mxGeometry x="-0.0238" relative="1" as="geometry">
            <mxPoint as="offset" />
          </mxGeometry>
        </mxCell>
        <mxCell id="SdwMhYSrG6HtyvcJUSBf-11" style="edgeStyle=orthogonalEdgeStyle;rounded=0;orthogonalLoop=1;jettySize=auto;html=1;exitX=0;exitY=0.75;exitDx=0;exitDy=0;entryX=1;entryY=0.75;entryDx=0;entryDy=0;" parent="1" source="SdwMhYSrG6HtyvcJUSBf-3" target="SdwMhYSrG6HtyvcJUSBf-1" edge="1">
          <mxGeometry relative="1" as="geometry" />
        </mxCell>
        <mxCell id="SdwMhYSrG6HtyvcJUSBf-12" value="&lt;font face=&quot;Courier New&quot;&gt;this.relations&lt;/font&gt;" style="edgeLabel;html=1;align=center;verticalAlign=top;resizable=0;points=[];spacing=0;" parent="SdwMhYSrG6HtyvcJUSBf-11" vertex="1" connectable="0">
          <mxGeometry x="0.0048" relative="1" as="geometry">
            <mxPoint as="offset" />
          </mxGeometry>
        </mxCell>
        <mxCell id="SdwMhYSrG6HtyvcJUSBf-3" value="Way" style="rounded=0;whiteSpace=wrap;html=1;" parent="1" vertex="1">
          <mxGeometry x="380" y="230" width="120" height="60" as="geometry" />
        </mxCell>
        <mxCell id="SdwMhYSrG6HtyvcJUSBf-17" style="edgeStyle=orthogonalEdgeStyle;rounded=0;orthogonalLoop=1;jettySize=auto;html=1;exitX=0;exitY=0.75;exitDx=0;exitDy=0;entryX=0;entryY=0.25;entryDx=0;entryDy=0;" parent="1" source="SdwMhYSrG6HtyvcJUSBf-1" target="SdwMhYSrG6HtyvcJUSBf-1" edge="1">
          <mxGeometry relative="1" as="geometry">
            <Array as="points">
              <mxPoint x="110" y="275" />
              <mxPoint x="110" y="245" />
            </Array>
          </mxGeometry>
        </mxCell>
        <mxCell id="SdwMhYSrG6HtyvcJUSBf-18" value="&lt;div align=&quot;right&quot;&gt;&lt;font face=&quot;Courier New&quot;&gt;this.child_relations&lt;/font&gt;&lt;/div&gt;" style="edgeLabel;html=1;align=right;verticalAlign=middle;resizable=0;points=[];spacing=5;" parent="SdwMhYSrG6HtyvcJUSBf-17" vertex="1" connectable="0">
          <mxGeometry x="0.0073" relative="1" as="geometry">
            <mxPoint as="offset" />
          </mxGeometry>
        </mxCell>
      </root>
    </mxGraphModel>
  </diagram>
</mxfile>
